<?xml version="1.0" standalone="no"?><!DOCTYPE svg PUBLIC "-//W3C//DTD SVG 1.1//EN" "http://www.w3.org/Graphics/SVG/1.1/DTD/svg11.dtd"><svg t="1687574883313" class="icon" viewBox="0 0 1024 1024" version="1.1" xmlns="http://www.w3.org/2000/svg" p-id="2415" xmlns:xlink="http://www.w3.org/1999/xlink" width="200" height="200"><path d="M809.71264 121.30304H209.93536c-64.84992 0-117.6064 52.75648-117.6064 117.6064v373.06368c0 64.84992 52.75648 117.6064 117.6064 117.6064h279.36256v123.4688H245.08928a30.72 30.72 0 0 0 0 61.44h570.32704a30.72 30.72 0 0 0 0-61.44h-264.6784v-123.4688h258.97984c64.84992 0 117.6064-52.75648 117.6064-117.6064V238.90432c-0.00512-64.8448-52.7616-117.60128-117.61152-117.60128z m56.1664 490.67008c0 30.97088-25.19552 56.1664-56.1664 56.1664H209.93536c-30.97088 0-56.1664-25.19552-56.1664-56.1664V238.90432c0-30.97088 25.19552-56.1664 56.1664-56.1664h599.7824c30.97088 0 56.1664 25.19552 56.1664 56.1664v373.0688z" fill="#333333" p-id="2416"></path></svg>