<?xml version="1.0" standalone="no"?><!DOCTYPE svg PUBLIC "-//W3C//DTD SVG 1.1//EN" "http://www.w3.org/Graphics/SVG/1.1/DTD/svg11.dtd"><svg t="1685432143060" class="icon" viewBox="0 0 1024 1024" version="1.1" xmlns="http://www.w3.org/2000/svg" p-id="1968" xmlns:xlink="http://www.w3.org/1999/xlink" width="200" height="200"><path d="M960 128a64 64 0 0 1 64 64v640a64 64 0 0 1-64 64H64a64 64 0 0 1-64-64V192a64 64 0 0 1 64-64h896z m0 64H64v640h896V192zM352 256v512H160V256h192z m256 0v512h-192V256h192z m256 0v512h-192V256h192z" fill="#000000" fill-opacity=".65" p-id="1969"></path></svg>