<?xml version="1.0" standalone="no"?><!DOCTYPE svg PUBLIC "-//W3C//DTD SVG 1.1//EN" "http://www.w3.org/Graphics/SVG/1.1/DTD/svg11.dtd"><svg t="1685432215131" class="icon" viewBox="0 0 1024 1024" version="1.1" xmlns="http://www.w3.org/2000/svg" p-id="4954" xmlns:xlink="http://www.w3.org/1999/xlink" width="200" height="200"><path d="M927.98144 352.02368c8.826703 0 15.99456-7.167857 15.99456-15.99456s-7.167857-15.99456-15.99456-15.99456l-240.00032 0 0-240.00032c0-8.826703-7.167857-15.99456-15.99456-15.99456s-15.99456 7.167857-15.99456 15.99456l0 240.00032-288.00448 0 0-240.00032c0-8.826703-7.167857-15.99456-15.99456-15.99456s-15.99456 7.167857-15.99456 15.99456l0 240.00032-240.00032 0c-8.826703 0-15.99456 7.167857-15.99456 15.99456s7.167857 15.99456 15.99456 15.99456l240.00032 0 0 288.00448-240.00032 0c-8.826703 0-15.99456 7.167857-15.99456 15.99456s7.167857 15.99456 15.99456 15.99456l240.00032 0 0 271.98944c0 8.826703 7.167857 15.99456 15.99456 15.99456s15.99456-7.167857 15.99456-15.99456l0-271.98944 288.00448 0 0 271.98944c0 8.826703 7.167857 15.99456 15.99456 15.99456s15.99456-7.167857 15.99456-15.99456l0-271.98944 240.00032 0c8.826703 0 15.99456-7.167857 15.99456-15.99456s-7.167857-15.99456-15.99456-15.99456l-240.00032 0 0-288.00448 240.00032 0zM655.992 640.00768l-288.00448 0 0-288.00448 288.00448 0 0 288.00448zM1007.9952 975.99584l0-927.99168c0-26.459631-21.544529-48.00416-48.00416-48.00416l-895.98208 0c-26.459631 0-48.00416 21.544529-48.00416 48.00416l0 927.99168c0 26.459631 21.544529 48.00416 48.00416 48.00416l895.98208 0c26.459631 0 48.00416-21.544529 48.00416-48.00416zM48.0144 975.99584l0-927.99168c0-8.826703 7.208816-15.99456 15.99456-15.99456l895.98208 0c8.806224 0 15.99456 7.167857 15.99456 15.99456l0 927.99168c0 8.826703-7.208816 15.99456-15.99456 15.99456l-895.98208 0c-8.806224 0-15.99456-7.167857-15.99456-15.99456z" fill="#444444" p-id="4955"></path></svg>