<?xml version="1.0" standalone="no"?><!DOCTYPE svg PUBLIC "-//W3C//DTD SVG 1.1//EN" "http://www.w3.org/Graphics/SVG/1.1/DTD/svg11.dtd"><svg t="1688610490802" class="icon" viewBox="0 0 1024 1024" version="1.1" xmlns="http://www.w3.org/2000/svg" p-id="1484" xmlns:xlink="http://www.w3.org/1999/xlink" width="200" height="200"><path d="M512 154.304a356.672 356.672 0 1 0 0 713.28A356.672 356.672 0 0 0 512 154.304zM76.16 510.912a435.904 435.904 0 1 1 871.744 0.064 435.904 435.904 0 0 1-871.808 0z m593.408 68.48c22.528-14.848 36.16-40.704 36.16-68.48 0-27.776-13.632-53.568-36.16-68.416l-208.256-136.96c-51.648-33.92-118.848 4.864-118.848 68.48v273.856c0 63.616 67.2 102.336 118.848 68.416l208.192-136.96v0.064z m-41.344-68.48l-208.256 136.96V374.016l208.256 136.96z" fill="#5C6C83" fill-opacity=".85" opacity=".85" p-id="1485"></path></svg>