<?xml version="1.0" standalone="no"?><!DOCTYPE svg PUBLIC "-//W3C//DTD SVG 1.1//EN" "http://www.w3.org/Graphics/SVG/1.1/DTD/svg11.dtd"><svg t="1689607648615" class="icon" viewBox="0 0 1024 1024" version="1.1" xmlns="http://www.w3.org/2000/svg" p-id="3964" xmlns:xlink="http://www.w3.org/1999/xlink" width="200" height="200"><path d="M244.9408 122.88h40.96v81.92h-40.96zM736.4608 122.88h40.96v81.92h-40.96z" p-id="3965"></path><path d="M840.0896 942.08h-655.36A61.44 61.44 0 0 1 122.88 880.64v-614.4a61.8496 61.8496 0 0 1 17.6128-43.4176A62.2592 62.2592 0 0 1 183.9104 204.8h655.36A61.44 61.44 0 0 1 901.12 266.24v614.4a61.8496 61.8496 0 0 1-17.6128 43.4176 62.2592 62.2592 0 0 1-43.4176 18.0224zM183.9104 245.76a20.0704 20.0704 0 0 0-14.7456 6.144 20.48 20.48 0 0 0-5.3248 14.336v614.4a20.48 20.48 0 0 0 20.48 20.48h655.36a20.0704 20.0704 0 0 0 14.7456-6.144 20.48 20.48 0 0 0 5.7344-14.336v-614.4a20.48 20.48 0 0 0-20.48-20.48z" p-id="3966"></path><path d="M142.5408 327.68h736.8704v40.96H142.5408zM491.52 491.52h40.96v286.72h-40.96z" p-id="3967"></path><path d="M368.64 614.4h286.72v40.96H368.64z" p-id="3968"></path></svg>