<?xml version="1.0" standalone="no"?><!DOCTYPE svg PUBLIC "-//W3C//DTD SVG 1.1//EN" "http://www.w3.org/Graphics/SVG/1.1/DTD/svg11.dtd"><svg t="1687751516194" class="icon" viewBox="0 0 1024 1024" version="1.1" xmlns="http://www.w3.org/2000/svg" p-id="2479" xmlns:xlink="http://www.w3.org/1999/xlink" width="200" height="200"><path d="M392.533333 733.866667c-3.413333 0-6.826667 0-6.826666-3.413334-6.826667 0-10.24-6.826667-10.24-13.653333V307.2c0-6.826667 3.413333-13.653333 10.24-13.653333s13.653333-3.413333 17.066666 0l307.2 204.8c3.413333 3.413333 6.826667 6.826667 6.826667 13.653333s-3.413333 10.24-6.826667 13.653333l-307.2 204.8c-3.413333 3.413333-6.826667 3.413333-10.24 3.413334zM409.6 337.92V682.666667l259.413333-174.08-259.413333-170.666667z" fill="" p-id="2480"></path><path d="M802.133333 938.666667h-580.266666C98.986667 938.666667 0 839.68 0 716.8V307.2c0-122.88 98.986667-221.866667 221.866667-221.866667h580.266666C925.013333 85.333333 1024 184.32 1024 307.2v409.6c0 122.88-98.986667 221.866667-221.866667 221.866667z m-580.266666-819.2C119.466667 119.466667 34.133333 204.8 34.133333 307.2v409.6c0 102.4 85.333333 187.733333 187.733334 187.733333h580.266666c102.4 0 187.733333-85.333333 187.733334-187.733333V307.2c0-102.4-85.333333-187.733333-187.733334-187.733333h-580.266666z" fill="" p-id="2481"></path></svg>