<?xml version="1.0" standalone="no"?><!DOCTYPE svg PUBLIC "-//W3C//DTD SVG 1.1//EN" "http://www.w3.org/Graphics/SVG/1.1/DTD/svg11.dtd"><svg t="1688911204146" class="icon" viewBox="0 0 1024 1024" version="1.1" xmlns="http://www.w3.org/2000/svg" p-id="8639" xmlns:xlink="http://www.w3.org/1999/xlink" width="200" height="200"><path d="M917 160H107c-23.75 0-43 19.25-43 43v618c0 23.75 19.25 43 43 43h810c23.75 0 43-19.25 43-43V203c0-23.75-19.25-43-43-43z m-43 618H150V356h724v422zM150 270v-24h724v24H150z" fill="#333333" p-id="8640"></path><path d="M372.51 738.64c-28.35 0-49.25-5.61-62.68-16.83-13.44-11.22-20.15-29.16-20.15-53.81v-61c0-5.67-0.55-10.29-1.66-13.87-1.11-3.57-2.72-6.29-4.81-8.14-2.1-1.85-4.81-3.08-8.14-3.7-3.33-0.61-7.21-0.92-11.65-0.92v-38.83c4.44 0 8.32-0.31 11.65-0.92 3.33-0.61 6.04-1.85 8.14-3.7 2.09-1.85 3.7-4.5 4.81-7.95 1.11-3.45 1.66-8.01 1.66-13.68v-61.02c0-24.9 6.78-42.9 20.34-53.99 13.56-11.09 34.39-16.64 62.5-16.64v38.83c-6.41 0-11.53 0.43-15.35 1.29-3.83 0.87-6.72 2.53-8.69 4.99-1.98 2.47-3.33 5.73-4.07 9.8-0.74 4.07-1.11 9.31-1.11 15.72v61.02c0 14.79-3.21 25.52-9.61 32.17-6.41 6.66-15.66 11.22-27.73 13.68 12.08 2.47 21.32 7.03 27.73 13.68 6.41 6.66 9.61 17.38 9.61 32.17v61.02c0 6.66 0.37 12.08 1.11 16.27 0.74 4.19 2.22 7.45 4.44 9.8 2.22 2.34 5.23 3.88 9.06 4.62 3.82 0.74 8.69 1.11 14.61 1.11v38.83zM651.49 699.82c5.92 0 10.79-0.37 14.61-1.11 3.83-0.74 6.84-2.28 9.06-4.62 2.22-2.35 3.7-5.61 4.44-9.8 0.74-4.19 1.11-9.61 1.11-16.27V607c0-14.79 3.21-25.52 9.61-32.17 6.41-6.66 15.66-11.22 27.73-13.68-12.08-2.46-21.32-7.03-27.73-13.68-6.41-6.66-9.61-17.38-9.61-32.17v-61.02c0-6.41-0.37-11.65-1.11-15.72-0.74-4.07-2.09-7.33-4.07-9.8-1.97-2.46-4.87-4.13-8.69-4.99-3.82-0.86-8.93-1.29-15.35-1.29v-38.83c28.1 0 48.94 5.55 62.5 16.64 13.56 11.09 20.34 29.09 20.34 53.99v61.02c0 5.67 0.55 10.23 1.66 13.68 1.11 3.46 2.72 6.1 4.81 7.95 2.1 1.85 4.81 3.09 8.14 3.7 3.33 0.62 7.21 0.92 11.65 0.92v38.83c-4.44 0-8.32 0.31-11.65 0.92-3.33 0.62-6.04 1.85-8.14 3.7-2.09 1.85-3.7 4.56-4.81 8.14-1.11 3.58-1.66 8.2-1.66 13.87v61.02c0 24.65-6.71 42.58-20.15 53.81-13.43 11.22-34.33 16.83-62.68 16.83v-38.85z" fill="#333333" p-id="8641"></path><path d="M436.92 671.14c-17.57 0-30.52-3.48-38.84-10.43-8.33-6.95-12.49-18.07-12.49-33.34v-37.81c0-3.51-0.34-6.38-1.03-8.59s-1.68-3.9-2.98-5.04c-1.3-1.15-2.98-1.91-5.04-2.29-2.06-0.38-4.47-0.57-7.22-0.57V549c2.75 0 5.16-0.19 7.22-0.57 2.06-0.38 3.74-1.15 5.04-2.29 1.3-1.15 2.29-2.79 2.98-4.93 0.69-2.14 1.03-4.96 1.03-8.48v-37.81c0-15.43 4.2-26.58 12.6-33.46 8.4-6.88 21.31-10.31 38.73-10.31v24.06c-3.97 0-7.14 0.27-9.51 0.8-2.37 0.54-4.16 1.57-5.39 3.09-1.22 1.53-2.06 3.55-2.52 6.07-0.46 2.52-0.69 5.77-0.69 9.74v37.81c0 9.17-1.99 15.81-5.96 19.94-3.97 4.12-9.7 6.95-17.19 8.48 7.48 1.53 13.21 4.35 17.19 8.48 3.97 4.13 5.96 10.77 5.96 19.94v37.81c0 4.12 0.23 7.48 0.69 10.08 0.46 2.6 1.37 4.62 2.75 6.07 1.37 1.45 3.24 2.41 5.61 2.86 2.37 0.46 5.39 0.69 9.05 0.69v24.07zM587.08 647.08c3.67 0 6.69-0.23 9.05-0.69 2.37-0.46 4.24-1.41 5.61-2.86 1.38-1.45 2.29-3.48 2.75-6.07 0.46-2.6 0.69-5.96 0.69-10.08v-37.81c0-9.17 1.99-15.81 5.96-19.94 3.97-4.12 9.7-6.95 17.19-8.48-7.48-1.53-13.21-4.35-17.19-8.48-3.97-4.13-5.96-10.77-5.96-19.94v-37.81c0-3.97-0.23-7.22-0.69-9.74-0.46-2.52-1.3-4.54-2.52-6.07-1.22-1.53-3.01-2.56-5.39-3.09-2.37-0.53-5.54-0.8-9.51-0.8v-24.06c17.42 0 30.33 3.44 38.73 10.31 8.4 6.88 12.6 18.03 12.6 33.46v37.81c0 3.52 0.34 6.34 1.03 8.48 0.69 2.14 1.68 3.78 2.98 4.93s2.98 1.91 5.04 2.29c2.06 0.38 4.47 0.57 7.22 0.57v24.06c-2.75 0-5.16 0.19-7.22 0.57-2.06 0.38-3.74 1.15-5.04 2.29-1.3 1.15-2.29 2.83-2.98 5.04-0.69 2.22-1.03 5.08-1.03 8.59v37.81c0 15.28-4.16 26.39-12.49 33.34-8.33 6.95-21.27 10.43-38.84 10.43v-24.06z" fill="#333333" p-id="8642"></path></svg>