<?xml version="1.0" standalone="no"?><!DOCTYPE svg PUBLIC "-//W3C//DTD SVG 1.1//EN" "http://www.w3.org/Graphics/SVG/1.1/DTD/svg11.dtd"><svg t="1688370795377" class="icon" viewBox="0 0 1098 1024" version="1.1" xmlns="http://www.w3.org/2000/svg" p-id="2669" xmlns:xlink="http://www.w3.org/1999/xlink" width="214.453125" height="200"><path d="M365.714286 329.142857q0 45.714286-32 77.714286t-77.714286 32-77.714286-32-32-77.714286 32-77.714286 77.714286-32 77.714286 32 32 77.714286zm585.142857 219.428571l0 256-804.571429 0 0-109.714286 182.857143-182.857143 91.428571 91.428571 292.571429-292.571429zm54.857143-402.285714l-914.285714 0q-7.428571 0-12.857143 5.428571t-5.428571 12.857143l0 694.857143q0 7.428571 5.428571 12.857143t12.857143 5.428571l914.285714 0q7.428571 0 12.857143-5.428571t5.428571-12.857143l0-694.857143q0-7.428571-5.428571-12.857143t-12.857143-5.428571zm91.428571 18.285714l0 694.857143q0 37.714286-26.857143 64.571429t-64.571429 26.857143l-914.285714 0q-37.714286 0-64.571429-26.857143t-26.857143-64.571429l0-694.857143q0-37.714286 26.857143-64.571429t64.571429-26.857143l914.285714 0q37.714286 0 64.571429 26.857143t26.857143 64.571429z" p-id="2670" fill='#A0C49D'></path></svg>